<mxfile host="app.diagrams.net" modified="2024-01-16T10:00:00.000Z" agent="5.0" version="22.1.16" type="device">
  <diagram name="AWS Architecture with Icons" id="aws-icons">
    <mxGraphModel dx="1400" dy="900" grid="1" gridSize="10" guides="1" tooltips="1" connect="1" arrows="1" fold="1" page="1" pageScale="1" pageWidth="1169" pageHeight="827" math="0" shadow="0">
      <root>
        <mxCell id="0" />
        <mxCell id="1" parent="0" />
        
        <!-- Title -->
        <mxCell id="title" value="R-Type 2 - Architecture AWS avec Icônes Officielles" style="text;html=1;strokeColor=none;fillColor=none;align=center;verticalAlign=middle;whiteSpace=wrap;rounded=0;fontSize=18;fontStyle=1;fontColor=#232F3E;" vertex="1" parent="1">
          <mxGeometry x="200" y="30" width="600" height="30" as="geometry" />
        </mxCell>
        
        <!-- Internet Cloud -->
        <mxCell id="internet" value="" style="sketch=0;outlineConnect=0;fontColor=#232F3E;gradientColor=none;fillColor=#4D72F3;strokeColor=none;dashed=0;verticalLabelPosition=bottom;verticalAlign=top;align=center;html=1;fontSize=12;fontStyle=0;aspect=fixed;pointerEvents=1;shape=mxgraph.aws4.internet;" vertex="1" parent="1">
          <mxGeometry x="80" y="100" width="60" height="60" as="geometry" />
        </mxCell>
        <mxCell id="internet-label" value="Internet" style="text;html=1;strokeColor=none;fillColor=none;align=center;verticalAlign=middle;whiteSpace=wrap;rounded=0;fontSize=12;fontColor=#232F3E;" vertex="1" parent="1">
          <mxGeometry x="70" y="170" width="80" height="20" as="geometry" />
        </mxCell>
        
        <!-- Users -->
        <mxCell id="users" value="" style="sketch=0;outlineConnect=0;fontColor=#232F3E;gradientColor=none;fillColor=#4D72F3;strokeColor=none;dashed=0;verticalLabelPosition=bottom;verticalAlign=top;align=center;html=1;fontSize=12;fontStyle=0;aspect=fixed;pointerEvents=1;shape=mxgraph.aws4.users;" vertex="1" parent="1">
          <mxGeometry x="80" y="220" width="60" height="60" as="geometry" />
        </mxCell>
        <mxCell id="users-label" value="Joueurs R-Type 2" style="text;html=1;strokeColor=none;fillColor=none;align=center;verticalAlign=middle;whiteSpace=wrap;rounded=0;fontSize=12;fontColor=#232F3E;" vertex="1" parent="1">
          <mxGeometry x="60" y="290" width="100" height="20" as="geometry" />
        </mxCell>
        
        <!-- Route 53 -->
        <mxCell id="route53" value="" style="sketch=0;points=[[0,0,0],[0.25,0,0],[0.5,0,0],[0.75,0,0],[1,0,0],[0,1,0],[0.25,1,0],[0.5,1,0],[0.75,1,0],[1,1,0],[0,0.25,0],[0,0.5,0],[0,0.75,0],[1,0.25,0],[1,0.5,0],[1,0.75,0]];outlineConnect=0;fontColor=#232F3E;gradientColor=#F78E04;gradientDirection=north;fillColor=#D05C17;strokeColor=#ffffff;dashed=0;verticalLabelPosition=bottom;verticalAlign=top;align=center;html=1;fontSize=12;fontStyle=0;aspect=fixed;shape=mxgraph.aws4.resourceIcon;resIcon=mxgraph.aws4.route_53;" vertex="1" parent="1">
          <mxGeometry x="280" y="100" width="60" height="60" as="geometry" />
        </mxCell>
        <mxCell id="route53-label" value="Route 53&#xa;DNS Management&#xa;rtype.example.com" style="text;html=1;strokeColor=none;fillColor=none;align=center;verticalAlign=middle;whiteSpace=wrap;rounded=0;fontSize=10;fontColor=#232F3E;" vertex="1" parent="1">
          <mxGeometry x="250" y="170" width="120" height="40" as="geometry" />
        </mxCell>
        
        <!-- CloudFront -->
        <mxCell id="cloudfront" value="" style="sketch=0;points=[[0,0,0],[0.25,0,0],[0.5,0,0],[0.75,0,0],[1,0,0],[0,1,0],[0.25,1,0],[0.5,1,0],[0.75,1,0],[1,1,0],[0,0.25,0],[0,0.5,0],[0,0.75,0],[1,0.25,0],[1,0.5,0],[1,0.75,0]];outlineConnect=0;fontColor=#232F3E;gradientColor=#F78E04;gradientDirection=north;fillColor=#D05C17;strokeColor=#ffffff;dashed=0;verticalLabelPosition=bottom;verticalAlign=top;align=center;html=1;fontSize=12;fontStyle=0;aspect=fixed;shape=mxgraph.aws4.resourceIcon;resIcon=mxgraph.aws4.cloudfront;" vertex="1" parent="1">
          <mxGeometry x="480" y="100" width="80" height="80" as="geometry" />
        </mxCell>
        <mxCell id="cloudfront-label" value="CloudFront&#xa;CDN Global&#xa;Cache Optimisé" style="text;html=1;strokeColor=none;fillColor=none;align=center;verticalAlign=middle;whiteSpace=wrap;rounded=0;fontSize=12;fontColor=#232F3E;fontStyle=1;" vertex="1" parent="1">
          <mxGeometry x="450" y="190" width="140" height="40" as="geometry" />
        </mxCell>
        
        <!-- CloudFront Features -->
        <mxCell id="cf-features" value="• HTTPS Obligatoire&#xa;• Compression Gzip&#xa;• Security Headers&#xa;• Cache Headers&#xa;• PriceClass_100" style="text;html=1;strokeColor=#D05C17;fillColor=#FFE6CC;align=left;verticalAlign=top;whiteSpace=wrap;rounded=1;fontSize=9;fontColor=#232F3E;" vertex="1" parent="1">
          <mxGeometry x="450" y="240" width="140" height="70" as="geometry" />
        </mxCell>
        
        <!-- S3 Bucket -->
        <mxCell id="s3" value="" style="sketch=0;points=[[0,0,0],[0.25,0,0],[0.5,0,0],[0.75,0,0],[1,0,0],[0,1,0],[0.25,1,0],[0.5,1,0],[0.75,1,0],[1,1,0],[0,0.25,0],[0,0.5,0],[0,0.75,0],[1,0.25,0],[1,0.5,0],[1,0.75,0]];outlineConnect=0;fontColor=#232F3E;gradientColor=#60A337;gradientDirection=north;fillColor=#277116;strokeColor=#ffffff;dashed=0;verticalLabelPosition=bottom;verticalAlign=top;align=center;html=1;fontSize=12;fontStyle=0;aspect=fixed;shape=mxgraph.aws4.resourceIcon;resIcon=mxgraph.aws4.s3;" vertex="1" parent="1">
          <mxGeometry x="720" y="100" width="80" height="80" as="geometry" />
        </mxCell>
        <mxCell id="s3-label" value="S3 Bucket&#xa;Static Website&#xa;Game Assets" style="text;html=1;strokeColor=none;fillColor=none;align=center;verticalAlign=middle;whiteSpace=wrap;rounded=0;fontSize=12;fontColor=#232F3E;fontStyle=1;" vertex="1" parent="1">
          <mxGeometry x="690" y="190" width="140" height="40" as="geometry" />
        </mxCell>
        
        <!-- S3 Features -->
        <mxCell id="s3-features" value="• Encryption AES-256&#xa;• Versioning Enabled&#xa;• Lifecycle Rules&#xa;• Public Access Blocked&#xa;• CloudFront Only Access" style="text;html=1;strokeColor=#277116;fillColor=#E6F7E6;align=left;verticalAlign=top;whiteSpace=wrap;rounded=1;fontSize=9;fontColor=#232F3E;" vertex="1" parent="1">
          <mxGeometry x="690" y="240" width="140" height="70" as="geometry" />
        </mxCell>
        
        <!-- Origin Access Control -->
        <mxCell id="oac" value="" style="sketch=0;outlineConnect=0;fontColor=#232F3E;gradientColor=none;fillColor=#DD344C;strokeColor=none;dashed=0;verticalLabelPosition=bottom;verticalAlign=top;align=center;html=1;fontSize=12;fontStyle=0;aspect=fixed;pointerEvents=1;shape=mxgraph.aws4.permissions;" vertex="1" parent="1">
          <mxGeometry x="620" y="120" width="40" height="40" as="geometry" />
        </mxCell>
        <mxCell id="oac-label" value="Origin Access&#xa;Control" style="text;html=1;strokeColor=none;fillColor=none;align=center;verticalAlign=middle;whiteSpace=wrap;rounded=0;fontSize=10;fontColor=#232F3E;" vertex="1" parent="1">
          <mxGeometry x="600" y="170" width="80" height="30" as="geometry" />
        </mxCell>
        
        <!-- CloudWatch -->
        <mxCell id="cloudwatch" value="" style="sketch=0;points=[[0,0,0],[0.25,0,0],[0.5,0,0],[0.75,0,0],[1,0,0],[0,1,0],[0.25,1,0],[0.5,1,0],[0.75,1,0],[1,1,0],[0,0.25,0],[0,0.5,0],[0,0.75,0],[1,0.25,0],[1,0.5,0],[1,0.75,0]];outlineConnect=0;fontColor=#232F3E;gradientColor=#F34482;gradientDirection=north;fillColor=#BC1356;strokeColor=#ffffff;dashed=0;verticalLabelPosition=bottom;verticalAlign=top;align=center;html=1;fontSize=12;fontStyle=0;aspect=fixed;shape=mxgraph.aws4.resourceIcon;resIcon=mxgraph.aws4.cloudwatch;" vertex="1" parent="1">
          <mxGeometry x="400" y="380" width="60" height="60" as="geometry" />
        </mxCell>
        <mxCell id="cloudwatch-label" value="CloudWatch&#xa;Monitoring &amp; Metrics" style="text;html=1;strokeColor=none;fillColor=none;align=center;verticalAlign=middle;whiteSpace=wrap;rounded=0;fontSize=11;fontColor=#232F3E;" vertex="1" parent="1">
          <mxGeometry x="370" y="450" width="120" height="30" as="geometry" />
        </mxCell>
        
        <!-- SNS -->
        <mxCell id="sns" value="" style="sketch=0;points=[[0,0,0],[0.25,0,0],[0.5,0,0],[0.75,0,0],[1,0,0],[0,1,0],[0.25,1,0],[0.5,1,0],[0.75,1,0],[1,1,0],[0,0.25,0],[0,0.5,0],[0,0.75,0],[1,0.25,0],[1,0.5,0],[1,0.75,0]];outlineConnect=0;fontColor=#232F3E;gradientColor=#F34482;gradientDirection=north;fillColor=#BC1356;strokeColor=#ffffff;dashed=0;verticalLabelPosition=bottom;verticalAlign=top;align=center;html=1;fontSize=12;fontStyle=0;aspect=fixed;shape=mxgraph.aws4.resourceIcon;resIcon=mxgraph.aws4.sns;" vertex="1" parent="1">
          <mxGeometry x="580" y="380" width="60" height="60" as="geometry" />
        </mxCell>
        <mxCell id="sns-label" value="SNS&#xa;Email Alerts" style="text;html=1;strokeColor=none;fillColor=none;align=center;verticalAlign=middle;whiteSpace=wrap;rounded=0;fontSize=11;fontColor=#232F3E;" vertex="1" parent="1">
          <mxGeometry x="560" y="450" width="100" height="30" as="geometry" />
        </mxCell>
        
        <!-- CloudFormation -->
        <mxCell id="cloudformation" value="" style="sketch=0;points=[[0,0,0],[0.25,0,0],[0.5,0,0],[0.75,0,0],[1,0,0],[0,1,0],[0.25,1,0],[0.5,1,0],[0.75,1,0],[1,1,0],[0,0.25,0],[0,0.5,0],[0,0.75,0],[1,0.25,0],[1,0.5,0],[1,0.75,0]];outlineConnect=0;fontColor=#232F3E;gradientColor=#F34482;gradientDirection=north;fillColor=#BC1356;strokeColor=#ffffff;dashed=0;verticalLabelPosition=bottom;verticalAlign=top;align=center;html=1;fontSize=12;fontStyle=0;aspect=fixed;shape=mxgraph.aws4.resourceIcon;resIcon=mxgraph.aws4.cloudformation;" vertex="1" parent="1">
          <mxGeometry x="80" y="380" width="60" height="60" as="geometry" />
        </mxCell>
        <mxCell id="cloudformation-label" value="CloudFormation&#xa;Infrastructure as Code" style="text;html=1;strokeColor=none;fillColor=none;align=center;verticalAlign=middle;whiteSpace=wrap;rounded=0;fontSize=11;fontColor=#232F3E;" vertex="1" parent="1">
          <mxGeometry x="50" y="450" width="120" height="30" as="geometry" />
        </mxCell>
        
        <!-- Developer -->
        <mxCell id="developer" value="" style="sketch=0;outlineConnect=0;fontColor=#232F3E;gradientColor=none;fillColor=#4D72F3;strokeColor=none;dashed=0;verticalLabelPosition=bottom;verticalAlign=top;align=center;html=1;fontSize=12;fontStyle=0;aspect=fixed;pointerEvents=1;shape=mxgraph.aws4.user;" vertex="1" parent="1">
          <mxGeometry x="80" y="320" width="40" height="40" as="geometry" />
        </mxCell>
        <mxCell id="developer-label" value="Développeur" style="text;html=1;strokeColor=none;fillColor=none;align=center;verticalAlign=middle;whiteSpace=wrap;rounded=0;fontSize=11;fontColor=#232F3E;" vertex="1" parent="1">
          <mxGeometry x="60" y="365" width="80" height="20" as="geometry" />
        </mxCell>
        
        <!-- Data Flow Arrows -->
        <mxCell id="flow1" style="edgeStyle=orthogonalEdgeStyle;rounded=0;orthogonalLoop=1;jettySize=auto;html=1;exitX=1;exitY=0.5;exitDx=0;exitDy=0;entryX=0;entryY=0.5;entryDx=0;entryDy=0;strokeWidth=3;strokeColor=#2E7D32;startArrow=none;startFill=0;endArrow=classic;endFill=1;" edge="1" parent="1" source="users" target="route53">
          <mxGeometry relative="1" as="geometry" />
        </mxCell>
        <mxCell id="flow1-label" value="DNS Query" style="text;html=1;strokeColor=none;fillColor=none;align=center;verticalAlign=middle;whiteSpace=wrap;rounded=0;fontSize=10;fontStyle=1;fontColor=#2E7D32;" vertex="1" parent="1">
          <mxGeometry x="190" y="240" width="70" height="20" as="geometry" />
        </mxCell>
        
        <mxCell id="flow2" style="edgeStyle=orthogonalEdgeStyle;rounded=0;orthogonalLoop=1;jettySize=auto;html=1;exitX=1;exitY=0.5;exitDx=0;exitDy=0;entryX=0;entryY=0.5;entryDx=0;entryDy=0;strokeWidth=3;strokeColor=#1976D2;startArrow=none;startFill=0;endArrow=classic;endFill=1;" edge="1" parent="1" source="route53" target="cloudfront">
          <mxGeometry relative="1" as="geometry" />
        </mxCell>
        <mxCell id="flow2-label" value="HTTPS Request" style="text;html=1;strokeColor=none;fillColor=none;align=center;verticalAlign=middle;whiteSpace=wrap;rounded=0;fontSize=10;fontStyle=1;fontColor=#1976D2;" vertex="1" parent="1">
          <mxGeometry x="370" y="120" width="90" height="20" as="geometry" />
        </mxCell>
        
        <mxCell id="flow3" style="edgeStyle=orthogonalEdgeStyle;rounded=0;orthogonalLoop=1;jettySize=auto;html=1;exitX=1;exitY=0.5;exitDx=0;exitDy=0;entryX=0;entryY=0.5;entryDx=0;entryDy=0;strokeWidth=3;strokeColor=#FF6F00;startArrow=none;startFill=0;endArrow=classic;endFill=1;" edge="1" parent="1" source="cloudfront" target="s3">
          <mxGeometry relative="1" as="geometry" />
        </mxCell>
        <mxCell id="flow3-label" value="Origin Request&#xa;(via OAC)" style="text;html=1;strokeColor=none;fillColor=none;align=center;verticalAlign=middle;whiteSpace=wrap;rounded=0;fontSize=10;fontStyle=1;fontColor=#FF6F00;" vertex="1" parent="1">
          <mxGeometry x="620" y="100" width="80" height="30" as="geometry" />
        </mxCell>
        
        <!-- Monitoring Flow -->
        <mxCell id="monitor1" style="edgeStyle=orthogonalEdgeStyle;rounded=0;orthogonalLoop=1;jettySize=auto;html=1;exitX=0.5;exitY=1;exitDx=0;exitDy=0;entryX=0.5;entryY=0;entryDx=0;entryDy=0;strokeWidth=2;strokeColor=#BC1356;strokeStyle=dashed;startArrow=none;startFill=0;endArrow=classic;endFill=1;" edge="1" parent="1" source="cloudfront" target="cloudwatch">
          <mxGeometry relative="1" as="geometry" />
        </mxCell>
        <mxCell id="monitor1-label" value="Metrics" style="text;html=1;strokeColor=none;fillColor=none;align=center;verticalAlign=middle;whiteSpace=wrap;rounded=0;fontSize=9;fontStyle=1;fontColor=#BC1356;" vertex="1" parent="1">
          <mxGeometry x="450" y="320" width="50" height="20" as="geometry" />
        </mxCell>
        
        <mxCell id="monitor2" style="edgeStyle=orthogonalEdgeStyle;rounded=0;orthogonalLoop=1;jettySize=auto;html=1;exitX=1;exitY=0.5;exitDx=0;exitDy=0;entryX=0;entryY=0.5;entryDx=0;entryDy=0;strokeWidth=2;strokeColor=#BC1356;strokeStyle=dashed;startArrow=none;startFill=0;endArrow=classic;endFill=1;" edge="1" parent="1" source="cloudwatch" target="sns">
          <mxGeometry relative="1" as="geometry" />
        </mxCell>
        <mxCell id="monitor2-label" value="Alerts" style="text;html=1;strokeColor=none;fillColor=none;align=center;verticalAlign=middle;whiteSpace=wrap;rounded=0;fontSize=9;fontStyle=1;fontColor=#BC1356;" vertex="1" parent="1">
          <mxGeometry x="510" y="400" width="40" height="20" as="geometry" />
        </mxCell>
        
        <!-- Deployment Flow -->
        <mxCell id="deploy1" style="edgeStyle=orthogonalEdgeStyle;rounded=0;orthogonalLoop=1;jettySize=auto;html=1;exitX=0.5;exitY=1;exitDx=0;exitDy=0;entryX=0.5;entryY=0;entryDx=0;entryDy=0;strokeWidth=2;strokeColor=#7B1FA2;startArrow=none;startFill=0;endArrow=classic;endFill=1;" edge="1" parent="1" source="developer" target="cloudformation">
          <mxGeometry relative="1" as="geometry" />
        </mxCell>
        <mxCell id="deploy1-label" value="Deploy" style="text;html=1;strokeColor=none;fillColor=none;align=center;verticalAlign=middle;whiteSpace=wrap;rounded=0;fontSize=9;fontStyle=1;fontColor=#7B1FA2;" vertex="1" parent="1">
          <mxGeometry x="120" y="350" width="40" height="20" as="geometry" />
        </mxCell>
        
        <!-- Cost Information -->
        <mxCell id="cost-box" value="💰 Coût Optimisé&#xa;&#xa;Estimation mensuelle: ~$1.20&#xa;• S3 Storage (100MB): $0.02&#xa;• CloudFront (10GB): $0.85&#xa;• CloudWatch: $0.30&#xa;• Route 53: $0.50 (optionnel)&#xa;&#xa;Optimisations:&#xa;• PriceClass_100 (NA+EU)&#xa;• Cache agressif&#xa;• S3 Lifecycle rules" style="text;html=1;strokeColor=#F57C00;fillColor=#FFF3E0;align=left;verticalAlign=top;whiteSpace=wrap;rounded=1;fontSize=10;fontColor=#232F3E;" vertex="1" parent="1">
          <mxGeometry x="80" y="520" width="200" height="140" as="geometry" />
        </mxCell>
        
        <!-- Security Information -->
        <mxCell id="security-box" value="🔒 Sécurité AWS&#xa;&#xa;Protections implémentées:&#xa;• HTTPS obligatoire (TLS 1.2+)&#xa;• Origin Access Control (OAC)&#xa;• Security Headers complets&#xa;• S3 Encryption AES-256&#xa;• Public Access bloqué&#xa;• Bucket Policy restrictive&#xa;&#xa;Headers sécurité:&#xa;• X-Frame-Options: DENY&#xa;• X-XSS-Protection&#xa;• Strict-Transport-Security" style="text;html=1;strokeColor=#D32F2F;fillColor=#FFEBEE;align=left;verticalAlign=top;whiteSpace=wrap;rounded=1;fontSize=10;fontColor=#232F3E;" vertex="1" parent="1">
          <mxGeometry x="320" y="520" width="200" height="160" as="geometry" />
        </mxCell>
        
        <!-- Performance Information -->
        <mxCell id="performance-box" value="⚡ Performance&#xa;&#xa;Optimisations CDN:&#xa;• Cache Edge global&#xa;• Compression Gzip&#xa;• HTTP/2 support&#xa;• Cache Headers optimisés&#xa;&#xa;Métriques surveillées:&#xa;• Cache Hit Rate (>80%)&#xa;• Error Rate (<10%)&#xa;• Origin Latency&#xa;• Requests/minute&#xa;&#xa;Zones géographiques:&#xa;• Amérique du Nord&#xa;• Europe" style="text;html=1;strokeColor=#1976D2;fillColor=#E3F2FD;align=left;verticalAlign=top;whiteSpace=wrap;rounded=1;fontSize=10;fontColor=#232F3E;" vertex="1" parent="1">
          <mxGeometry x="560" y="520" width="200" height="160" as="geometry" />
        </mxCell>
        
        <!-- Environments -->
        <mxCell id="environments-box" value="🌍 Environnements&#xa;&#xa;Multi-environnements supportés:&#xa;&#xa;🔧 DEV:&#xa;• dev-rtype.example.com&#xa;• Tous fichiers + tests&#xa;• Debug activé&#xa;&#xa;🧪 STAGING:&#xa;• staging-rtype.example.com&#xa;• Pré-production&#xa;• Monitoring complet&#xa;&#xa;🚀 PROD:&#xa;• rtype.example.com&#xa;• Build optimisé&#xa;• Performance maximale" style="text;html=1;strokeColor=#388E3C;fillColor=#E8F5E8;align=left;verticalAlign=top;whiteSpace=wrap;rounded=1;fontSize=10;fontColor=#232F3E;" vertex="1" parent="1">
          <mxGeometry x="800" y="520" width="200" height="160" as="geometry" />
        </mxCell>
        
        <!-- AWS Region Box -->
        <mxCell id="aws-region" value="AWS Region: us-east-1" style="rounded=1;whiteSpace=wrap;html=1;fillColor=#232F3E;strokeColor=#FF9900;fontColor=#FFFFFF;fontSize=12;fontStyle=1;" vertex="1" parent="1">
          <mxGeometry x="850" y="80" width="150" height="30" as="geometry" />
        </mxCell>
        
        <!-- Legend -->
        <mxCell id="legend-title" value="Légende des Flux" style="text;html=1;strokeColor=none;fillColor=none;align=center;verticalAlign=middle;whiteSpace=wrap;rounded=0;fontSize=12;fontStyle=1;fontColor=#232F3E;" vertex="1" parent="1">
          <mxGeometry x="850" y="120" width="150" height="20" as="geometry" />
        </mxCell>
        
        <mxCell id="legend-user" value="—— Trafic utilisateur" style="text;html=1;strokeColor=none;fillColor=none;align=left;verticalAlign=middle;whiteSpace=wrap;rounded=0;fontSize=10;fontColor=#2E7D32;" vertex="1" parent="1">
          <mxGeometry x="850" y="145" width="150" height="15" as="geometry" />
        </mxCell>
        
        <mxCell id="legend-https" value="—— Requêtes HTTPS" style="text;html=1;strokeColor=none;fillColor=none;align=left;verticalAlign=middle;whiteSpace=wrap;rounded=0;fontSize=10;fontColor=#1976D2;" vertex="1" parent="1">
          <mxGeometry x="850" y="165" width="150" height="15" as="geometry" />
        </mxCell>
        
        <mxCell id="legend-origin" value="—— Requêtes origine" style="text;html=1;strokeColor=none;fillColor=none;align=left;verticalAlign=middle;whiteSpace=wrap;rounded=0;fontSize=10;fontColor=#FF6F00;" vertex="1" parent="1">
          <mxGeometry x="850" y="185" width="150" height="15" as="geometry" />
        </mxCell>
        
        <mxCell id="legend-monitoring" value="- - - Monitoring" style="text;html=1;strokeColor=none;fillColor=none;align=left;verticalAlign=middle;whiteSpace=wrap;rounded=0;fontSize=10;fontColor=#BC1356;" vertex="1" parent="1">
          <mxGeometry x="850" y="205" width="150" height="15" as="geometry" />
        </mxCell>
        
        <mxCell id="legend-deploy" value="—— Déploiement" style="text;html=1;strokeColor=none;fillColor=none;align=left;verticalAlign=middle;whiteSpace=wrap;rounded=0;fontSize=10;fontColor=#7B1FA2;" vertex="1" parent="1">
          <mxGeometry x="850" y="225" width="150" height="15" as="geometry" />
        </mxCell>
      </root>
    </mxGraphModel>
  </diagram>
</mxfile>
